<?xml version="1.0" encoding="UTF-8"?>
<svg width="53px" height="53px" viewBox="0 0 53 53" version="1.1" xmlns="http://www.w3.org/2000/svg" xmlns:xlink="http://www.w3.org/1999/xlink">
    <!-- Generator: Sketch 51 (57462) - http://www.bohemiancoding.com/sketch -->
    <title>Group 15</title>
    <desc>Created with Sketch.</desc>
    <defs></defs>
    <g id="Page-1" stroke="none" stroke-width="1" fill="none" fill-rule="evenodd">
        <g id="Artboard" transform="translate(-124.000000, -58.000000)" stroke="#3E59C6" stroke-width="3">
            <g id="Right-Module">
                <g id="Group-15" transform="translate(125.000000, 59.000000)">
                    <path d="M49.6678,25.084 C49.6678,38.015 39.6848,48.614 27.0058,49.594 C26.3708,49.643 25.7308,49.668 25.0838,49.668 C11.5068,49.668 0.4998,38.661 0.4998,25.084 C0.4998,11.506 11.5068,0.5 25.0838,0.5 C25.5608,0.5 26.0328,0.514 26.5028,0.54 C39.4198,1.275 49.6678,11.983 49.6678,25.084 Z" id="Stroke-1"></path>
                    <path d="M48.5721,24.5581 L0.5281,24.5581" id="Stroke-3"></path>
                    <path d="M44.5838,10.084 C44.5838,10.084 35.2548,14.141 25.1118,14.141 C14.9698,14.141 5.5278,10.084 5.5278,10.084" id="Stroke-5"></path>
                    <path d="M5.5848,38.4263 C5.5848,38.4263 14.9128,34.3683 25.0558,34.3683 C35.1978,34.3683 44.6398,38.4263 44.6398,38.4263" id="Stroke-7"></path>
                    <path d="M25.0633,49.668 L25.0633,1.624" id="Stroke-9"></path>
                    <path d="M26.1443,0.4981 C17.6273,5.0521 11.7923,14.3521 11.7923,25.0841 C11.7923,35.7571 17.5633,45.0141 26.0043,49.5951" id="Stroke-11"></path>
                    <path d="M24.1678,49.5948 C32.6858,45.0408 38.5208,35.7408 38.5208,25.0088 C38.5208,14.3348 32.7488,5.0788 24.3088,0.4978" id="Stroke-13"></path>
                </g>
            </g>
        </g>
    </g>
</svg>